<svg width="74" height="77" viewBox="0 0 74 77" fill="none" xmlns="http://www.w3.org/2000/svg">
<path d="M73.7787 38.3322C73.7787 30.7508 71.6152 23.3396 67.5617 17.0359C63.5082 10.7323 57.747 5.81915 51.0063 2.91787C44.2656 0.0166088 36.8485 -0.742495 29.6926 0.736558C22.5368 2.21562 15.9637 5.86639 10.8046 11.2273C5.64558 16.5881 2.13221 23.4182 0.708835 30.8539C-0.714549 38.2896 0.0159835 45.9969 2.80805 53.0012C5.60012 60.0055 10.3283 65.9921 16.3947 70.2041C22.4612 74.4161 29.5933 76.6642 36.8893 76.6642C41.7339 76.6648 46.531 75.6736 51.0068 73.7474C55.4826 71.8213 59.5495 68.9977 62.9751 65.4381C66.4007 61.8785 69.1179 57.6527 70.9716 53.0018C72.8253 48.3509 73.7791 43.3662 73.7787 38.3322Z" fill="#B7ECB1"/>
<path d="M16.1045 29.8281H18.1083L12.1617 44.5072H11.7056L5.64062 29.8281H7.66949L11.8995 40.0931L16.1045 29.8281Z" fill="white"/>
<path d="M23.9774 38.6572V42.7617C23.9774 43.09 24.0851 43.2543 24.3006 43.2543C24.6839 43.18 25.0417 43.0025 25.3384 42.7394V43.9035C25.022 44.1244 24.6866 44.3143 24.3364 44.4707C24.0832 44.5719 23.8142 44.6238 23.5429 44.6236C22.7601 44.6236 22.2968 44.3028 22.1532 43.661C21.4523 44.2596 20.5755 44.5915 19.6683 44.6013C19.3702 44.6102 19.0735 44.556 18.7963 44.4418C18.5191 44.3276 18.2672 44.1558 18.056 43.9371C17.8439 43.7203 17.6772 43.4601 17.5665 43.1731C17.4559 42.886 17.4037 42.5782 17.4132 42.2692C17.4123 41.6629 17.6375 41.0796 18.0416 40.6423C18.5415 40.1202 19.1586 39.7356 19.8371 39.5229L22.1819 38.6834V38.1721C22.1819 37.0154 21.6253 36.4333 20.5121 36.4333C19.5115 36.4333 18.5372 36.9706 17.5891 38.0453V35.9371C18.3073 35.0689 19.3319 34.6336 20.663 34.6311C21.5322 34.5908 22.3856 34.8828 23.0617 35.452C23.2803 35.6498 23.4639 35.886 23.6039 36.1498C23.7582 36.417 23.863 36.7118 23.9127 37.0192C23.9678 37.5657 23.9894 38.1153 23.9774 38.6647V38.6572ZM22.1819 42.549V39.6908L20.9539 40.1834C20.4696 40.356 20.0203 40.6205 19.6288 40.9632C19.3859 41.2253 19.2502 41.575 19.2502 41.939C19.2502 42.3029 19.3859 42.6526 19.6288 42.9147C19.755 43.0404 19.9044 43.1382 20.0679 43.2023C20.2314 43.2664 20.4057 43.2955 20.5804 43.2879C20.8844 43.281 21.1842 43.2115 21.4621 43.0833C21.7401 42.9553 21.9909 42.7711 22.1999 42.5415" fill="white"/>
<path d="M28.8313 29.8281H27V44.4476H28.8313V29.8281Z" fill="white"/>
<path d="M42.9211 29.8281H44.8028V44.4438H42.7812V33.0706L38.4541 38.7199H38.0806L33.7069 33.0706V44.4438H31.6924V29.8281H33.5992L38.2745 35.8318L42.9211 29.8281Z" fill="white"/>
<path d="M53.4051 38.658V42.7624C53.4051 43.0908 53.5129 43.255 53.7283 43.255C54.1119 43.1814 54.47 43.0038 54.7661 42.74V43.9043C54.4498 44.1252 54.1144 44.3151 53.7643 44.4714C53.5123 44.5727 53.2444 44.6246 52.9742 44.6244C52.189 44.6244 51.7258 44.3035 51.5845 43.6617C50.8819 44.2598 50.0043 44.5915 49.096 44.602C48.798 44.6108 48.5014 44.5564 48.2241 44.4421C47.947 44.328 47.695 44.1564 47.4837 43.9379C47.2715 43.721 47.1048 43.4609 46.9943 43.1739C46.8836 42.8867 46.8314 42.579 46.841 42.2699C46.8399 41.6635 47.0652 41.0804 47.4694 40.643C47.9692 40.121 48.5862 39.7363 49.2648 39.5237L51.6097 38.6841V38.1729C51.6097 37.0162 51.0531 36.4341 49.9399 36.4341C48.9392 36.4341 47.9661 36.9714 47.0205 38.0461V35.9379C47.7386 35.0696 48.762 34.6344 50.0907 34.6319C50.9615 34.5876 51.8177 34.8771 52.4967 35.4453C52.9378 35.8568 53.2368 36.4073 53.3477 37.0124C53.4028 37.559 53.4243 38.1086 53.4123 38.658H53.4051ZM51.6169 42.5423V39.6841L50.3888 40.1767C49.9045 40.3493 49.4552 40.6137 49.0638 40.9565C48.8184 41.2162 48.6795 41.5646 48.6761 41.9284C48.6728 42.2924 48.8053 42.6435 49.0458 42.908C49.172 43.0337 49.3213 43.1315 49.4848 43.1956C49.6484 43.2597 49.8227 43.2888 49.9974 43.2811C50.3014 43.2743 50.6011 43.2048 50.8791 43.0766C51.1571 42.9486 51.4078 42.7644 51.6169 42.5348" fill="white"/>
<path d="M58.3483 34.8184V37.0273L58.4489 36.8594C59.3346 35.3669 60.2215 34.6206 61.1098 34.6206C61.7992 34.6206 62.5174 34.9826 63.2643 35.7065L62.2983 37.3818C61.6627 36.7549 61.0702 36.4415 60.528 36.4415C60.2229 36.4487 59.9239 36.532 59.6564 36.6847C59.3888 36.8373 59.1606 37.0547 58.9911 37.3184C58.5535 37.9157 58.3243 38.65 58.3411 39.4005V44.4452H56.499V34.8184H58.3483Z" fill="white"/>
<path d="M65.4982 30.7685C65.6418 30.7661 65.7843 30.7936 65.9176 30.8493C66.0507 30.9051 66.1719 30.9879 66.2738 31.0931C66.3781 31.1947 66.4608 31.318 66.5165 31.4548C66.5721 31.5917 66.5995 31.7392 66.597 31.8878C66.5982 32.0362 66.5702 32.1833 66.5146 32.32C66.4591 32.4567 66.377 32.5801 66.2738 32.6826C66.1727 32.7897 66.0521 32.8746 65.9188 32.9323C65.7855 32.9901 65.6425 33.0192 65.4982 33.0184C65.3584 33.0182 65.2202 32.9879 65.0923 32.9295C64.9643 32.871 64.8495 32.7857 64.7548 32.6788C64.6525 32.5764 64.5712 32.4535 64.5156 32.3176C64.46 32.1816 64.4315 32.0355 64.4316 31.8878C64.4323 31.742 64.4613 31.5977 64.5169 31.4638C64.5724 31.3298 64.6533 31.2087 64.7548 31.1079C64.8495 31.0011 64.9643 30.9158 65.0923 30.8574C65.2202 30.799 65.3584 30.7686 65.4982 30.7685ZM64.5932 34.8169H66.4354V44.4438H64.604L64.5932 34.8169Z" fill="white"/>
</svg>
